<?xml version="1.0" standalone="no"?>
<!DOCTYPE svg PUBLIC "-//W3C//DTD SVG 20010904//EN"
 "http://www.w3.org/TR/2001/REC-SVG-20010904/DTD/svg10.dtd">
<svg version="1.0" xmlns="http://www.w3.org/2000/svg"
 width="318.000000pt" height="318.000000pt" viewBox="0 0 318.000000 318.000000"
 preserveAspectRatio="xMidYMid meet">
<metadata>
Created by potrace 1.11, written by Peter Selinger 2001-2013
</metadata>
<g transform="translate(0.000000,318.000000) scale(0.100000,-0.100000)"
fill="#000000" stroke="none">
<path d="M2019 3008 c0 -7 -2 -22 -5 -33 -9 -43 7 -106 37 -140 28 -32 29 -33
7 -29 -18 3 -16 2 5 -7 32 -13 36 -30 5 -24 -34 7 -102 -29 -133 -69 -15 -20
-25 -39 -22 -42 3 -3 26 -8 51 -10 55 -5 108 18 156 70 l33 35 47 -27 c26 -15
57 -35 71 -45 l24 -18 -25 7 c-53 15 -105 0 -157 -45 -30 -25 -29 -39 3 -51
59 -23 127 -9 192 38 l32 25 38 -27 c20 -15 53 -40 72 -57 l35 -30 -39 16
c-22 10 -55 15 -76 12 -43 -5 -122 -46 -117 -61 6 -20 72 -46 117 -46 27 0 66
10 98 25 l52 24 50 -60 c28 -33 50 -62 50 -63 0 -2 -17 5 -37 15 -47 24 -96
24 -151 -1 -49 -22 -48 -30 10 -66 45 -29 113 -34 174 -14 34 12 38 11 56 -11
23 -30 68 -109 62 -109 -3 0 -19 10 -35 23 -24 17 -43 22 -92 21 -34 0 -70 -5
-80 -10 -17 -10 -17 -13 8 -43 15 -17 40 -38 55 -46 33 -17 114 -25 152 -14
23 6 28 3 37 -19 5 -15 19 -51 30 -81 l20 -54 -36 36 c-39 39 -89 55 -154 49
-43 -4 -43 -14 -2 -70 32 -43 72 -62 146 -70 l61 -7 17 -73 c9 -40 12 -75 8
-78 -5 -3 -9 1 -9 10 0 20 -54 69 -92 83 -41 15 -108 16 -108 3 0 -23 41 -89
71 -114 17 -15 58 -34 90 -43 39 -11 59 -22 60 -32 1 -25 1 -125 -1 -136 -1
-5 -8 7 -15 27 -18 49 -41 73 -95 97 -61 28 -80 27 -80 -4 0 -72 77 -164 152
-180 l31 -7 -7 -61 c-7 -72 -21 -92 -30 -45 -7 38 -61 96 -113 122 -18 9 -34
16 -38 16 -3 0 -5 -24 -5 -52 0 -66 29 -120 87 -164 23 -18 47 -34 53 -36 11
-3 -26 -128 -38 -128 -4 0 -7 15 -8 33 -1 45 -37 102 -88 139 l-41 29 -6 -23
c-23 -79 -1 -152 68 -224 l38 -41 -26 -47 c-37 -67 -45 -72 -41 -22 4 49 -18
100 -67 154 l-30 33 -16 -30 c-34 -67 -21 -160 34 -236 l29 -41 -26 -35 c-15
-19 -35 -43 -45 -54 -18 -20 -18 -20 -11 10 15 58 8 112 -23 167 -17 29 -34
53 -39 52 -17 -2 -57 -87 -59 -127 -2 -40 15 -106 42 -156 12 -25 11 -28 -34
-68 -27 -22 -49 -40 -50 -39 -2 2 4 24 13 50 19 54 15 94 -15 162 -24 54 -34
51 -77 -22 -37 -64 -40 -131 -8 -235 3 -11 -13 -25 -57 -49 l-62 -33 28 38
c24 31 29 48 31 101 3 65 -10 124 -27 124 -18 0 -77 -61 -95 -98 -12 -26 -18
-62 -18 -121 l-1 -84 -35 -12 c-90 -31 -88 -31 -56 1 16 16 35 44 43 62 14 34
20 143 9 161 -8 13 -65 -21 -104 -60 -34 -35 -62 -113 -62 -175 0 -28 -5 -44
-12 -45 -7 0 -22 -3 -33 -5 -30 -7 -57 -11 -85 -13 -18 -1 -26 -7 -27 -22 -3
-30 15 -32 114 -11 l91 19 16 -28 c16 -28 73 -77 112 -97 33 -17 83 -23 130
-16 l43 6 -15 30 c-29 56 -98 116 -145 125 l-44 9 57 23 57 23 40 -31 c50 -40
118 -71 156 -71 17 0 52 6 79 13 l49 13 -32 37 c-44 50 -97 81 -151 87 l-45 5
54 31 55 31 59 -31 c45 -23 72 -30 116 -31 55 0 141 28 141 46 0 5 -25 26 -56
46 -49 33 -65 38 -115 38 -64 0 -64 4 0 55 l37 28 54 -18 c78 -26 150 -21 202
16 23 16 42 34 42 39 0 6 -21 20 -47 33 -55 25 -132 31 -168 12 -23 -13 -23
-13 -6 11 9 13 27 38 40 56 19 27 26 31 52 25 54 -12 149 -6 180 11 35 18 85
64 85 77 0 12 -61 31 -114 35 -30 2 -57 -3 -82 -16 -21 -10 -39 -19 -41 -19
-1 0 12 26 28 58 l31 58 59 2 c80 2 146 32 183 83 35 50 27 60 -50 61 -61 1
-92 -9 -133 -46 -23 -20 -24 -20 -17 -1 5 11 9 25 10 30 1 6 8 28 15 51 12 36
16 40 49 42 61 4 137 45 165 89 14 21 28 48 32 61 6 20 3 22 -28 22 -59 0
-134 -28 -162 -61 l-26 -31 5 28 c2 16 7 48 11 71 6 39 10 43 52 57 87 30 133
80 148 159 7 38 7 38 -21 32 -88 -20 -131 -47 -159 -101 -14 -28 -15 -26 -15
53 0 79 1 81 28 91 31 11 94 67 110 98 6 11 14 44 18 72 6 50 6 51 -17 44 -57
-17 -109 -56 -130 -99 -11 -24 -23 -43 -27 -43 -3 0 -3 3 0 6 4 3 -2 34 -12
69 l-18 63 43 35 c51 43 85 108 85 163 0 64 -11 70 -60 32 -51 -38 -80 -83
-83 -126 -2 -29 -17 -35 -17 -8 0 8 -11 39 -25 69 l-25 56 26 28 c59 63 81
150 55 217 l-12 29 -35 -34 c-48 -46 -64 -79 -64 -136 l0 -48 -16 30 c-8 16
-22 37 -30 46 -8 8 -14 21 -14 27 0 7 -4 12 -9 12 -16 0 -22 32 -9 49 32 40
54 105 49 146 -3 33 -32 105 -41 105 -13 0 -61 -85 -69 -123 -4 -18 -4 -45 0
-62 8 -30 8 -30 -29 11 -79 87 -74 77 -57 118 26 62 23 125 -8 179 -15 26 -30
47 -32 47 -3 0 -14 -18 -25 -40 -28 -55 -32 -112 -10 -156 l18 -35 -34 25
c-19 14 -50 38 -69 52 -29 22 -34 30 -28 53 4 14 6 50 6 79 0 43 -7 62 -30 95
-37 53 -56 58 -69 15 -16 -52 -10 -115 15 -148 12 -17 19 -30 17 -30 -3 0 -36
15 -73 34 l-69 35 -1 60 c-1 41 -8 73 -23 98 -23 41 -89 92 -91 71z"/>
<path d="M1132 2981 c-40 -37 -53 -70 -57 -145 -2 -32 -5 -59 -7 -60 -2 0 -31
-16 -65 -33 -34 -18 -64 -33 -66 -33 -2 0 6 20 18 45 24 46 25 92 3 148 -10
27 -11 27 -30 10 -57 -51 -79 -131 -57 -207 7 -25 6 -33 -8 -44 -10 -7 -25
-18 -33 -25 -38 -31 -80 -58 -80 -50 0 5 4 13 10 19 19 19 14 100 -10 149
l-23 48 -24 -29 c-44 -55 -51 -129 -17 -209 11 -29 10 -32 -43 -90 l-55 -60 7
37 c10 50 -1 89 -37 139 l-31 43 -20 -40 c-28 -55 -26 -113 9 -181 l29 -57
-40 -63 c-41 -64 -57 -78 -48 -43 10 37 -7 86 -43 128 -20 23 -41 42 -48 42
-16 0 -33 -55 -30 -97 3 -40 27 -90 63 -133 l28 -34 -22 -51 c-12 -27 -26 -59
-30 -70 -7 -17 -9 -14 -15 17 -4 20 -14 48 -24 62 -21 32 -95 88 -107 80 -16
-9 -9 -97 10 -139 10 -22 37 -57 60 -78 38 -34 42 -42 37 -70 -4 -18 -10 -50
-14 -72 l-8 -40 -18 38 c-22 45 -74 90 -121 105 l-35 10 0 -36 c1 -73 49 -140
135 -188 17 -9 20 -22 20 -73 0 -70 -6 -82 -25 -47 -14 28 -91 72 -138 81 -28
5 -32 3 -32 -17 1 -71 78 -156 162 -178 28 -8 38 -16 38 -30 0 -11 1 -22 2
-25 0 -2 4 -25 8 -50 l7 -46 -28 30 c-34 37 -67 51 -136 58 -62 6 -65 -1 -30
-62 33 -58 94 -94 184 -108 30 -4 29 -4 52 -76 l20 -63 -22 20 c-39 35 -71 45
-136 44 -35 -1 -66 -3 -68 -6 -11 -10 11 -50 45 -82 42 -39 94 -57 168 -56
l51 0 31 -64 32 -65 -31 23 c-25 19 -43 23 -92 22 -34 -1 -77 -8 -95 -15 l-34
-14 31 -32 c17 -18 45 -40 63 -49 34 -18 134 -24 179 -12 24 7 31 2 67 -47 37
-50 39 -53 16 -44 -37 14 -94 11 -147 -7 -60 -20 -77 -39 -51 -60 67 -52 146
-64 234 -34 l55 19 25 -23 c14 -12 36 -32 49 -44 l23 -20 -40 5 c-22 3 -56 0
-75 -6 -39 -13 -117 -66 -117 -80 0 -4 19 -17 42 -27 75 -34 188 -19 250 34
15 12 23 10 73 -20 l56 -33 -43 -6 c-61 -7 -105 -33 -156 -91 l-24 -26 22 -12
c13 -7 47 -14 76 -17 45 -4 63 -1 108 21 30 15 65 38 78 51 28 30 32 30 99 3
l53 -22 -39 -8 c-51 -11 -100 -49 -136 -107 -27 -41 -28 -46 -12 -52 10 -4 45
-5 77 -4 48 3 68 10 111 40 29 19 63 51 76 69 l24 33 50 -12 c28 -7 71 -16 96
-19 41 -6 47 -4 52 14 6 24 5 25 -82 39 -35 6 -65 12 -66 13 -1 2 -5 29 -9 60
-10 103 -51 169 -128 209 l-38 19 -1 -22 c-7 -109 16 -189 63 -222 31 -22 10
-20 -55 5 -54 21 -54 21 -47 55 18 79 -5 166 -59 223 -58 61 -66 57 -79 -37
-9 -64 4 -120 35 -154 24 -26 0 -23 -50 8 -23 15 -43 28 -45 29 -1 1 4 29 11
61 23 100 14 150 -41 222 -30 39 -43 32 -66 -35 -21 -62 -20 -111 3 -156 10
-20 16 -37 12 -37 -3 0 -28 19 -54 43 l-48 42 26 57 c41 89 34 174 -18 242
-14 19 -15 18 -40 -21 -45 -70 -54 -133 -31 -198 l7 -20 -19 20 c-11 11 -32
36 -47 56 -27 36 -27 36 -8 60 58 75 77 156 52 232 -15 46 -31 47 -67 5 -38
-46 -54 -89 -54 -145 l0 -48 -34 60 -34 59 29 28 c61 59 83 106 83 174 0 87
-10 94 -66 45 -50 -44 -78 -93 -78 -138 -1 -22 -3 -25 -10 -12 -12 20 -42 110
-38 113 99 59 138 111 145 195 3 34 3 61 -1 61 -15 0 -83 -40 -109 -64 -29
-27 -59 -85 -51 -98 3 -5 1 -8 -4 -8 -11 0 -31 116 -23 127 3 5 31 21 62 36
73 36 119 102 119 170 0 50 -148 -25 -175 -89 -8 -18 -16 -34 -18 -34 -2 0 -3
33 -2 73 l0 72 40 10 c94 24 149 69 173 143 13 38 8 40 -69 27 -49 -9 -88 -36
-115 -80 -27 -43 -27 -47 -4 71 l12 62 57 4 c77 6 125 31 161 86 16 25 28 47
26 50 -9 8 -112 3 -138 -7 -14 -5 -37 -21 -52 -36 -27 -27 -36 -15 -17 23 5 9
17 36 26 58 16 39 19 41 44 34 28 -8 58 -6 118 5 17 3 50 23 73 47 50 48 45
55 -46 63 -49 4 -64 1 -102 -21 l-45 -27 20 34 c11 19 30 51 42 72 16 26 27
35 35 29 16 -14 73 -25 123 -24 31 1 56 10 90 33 43 30 45 33 27 46 -50 36
-128 41 -187 12 l-42 -21 30 33 c16 19 43 48 58 66 l29 31 52 -24 c30 -14 70
-24 96 -24 44 0 111 27 117 47 5 15 -95 63 -129 63 -16 0 -44 -7 -63 -14 -19
-8 -35 -13 -35 -11 0 5 127 105 135 105 3 0 21 -11 38 -23 18 -13 47 -30 65
-37 36 -14 127 -9 144 8 16 16 -16 50 -75 77 -38 18 -56 21 -85 14 -20 -4 -38
-7 -39 -5 -1 1 30 21 70 44 l72 42 31 -35 c59 -65 100 -78 207 -66 14 2 7 16
-25 53 -35 40 -88 67 -125 63 -35 -3 -27 12 13 25 20 7 47 9 62 4 42 -11 82
-4 123 22 54 33 55 42 8 54 -52 14 -84 7 -131 -31 -32 -25 -78 -49 -95 -49 -3
0 6 9 19 20 31 24 56 84 53 125 -2 17 -3 38 -4 48 -1 25 -22 21 -59 -12z"/>
<path d="M1848 2879 c-36 -14 -35 -19 5 -46 52 -35 77 -41 132 -29 l49 11 -42
33 c-46 37 -99 48 -144 31z"/>
<path d="M1485 2430 c-421 -64 -733 -428 -724 -844 5 -223 79 -409 228 -568
163 -175 377 -267 617 -266 389 1 717 257 815 633 34 132 32 315 -5 438 -93
309 -337 537 -641 598 -67 14 -228 19 -290 9z"/>
</g>
</svg>
